<mxfile host="app.diagrams.net" agent="Mozilla/5.0 (Windows NT 10.0; Win64; x64) AppleWebKit/537.36 (KHTML, like Gecko) Chrome/136.0.0.0 Safari/537.36 Edg/136.0.0.0" version="27.0.5">
  <diagram name="第 1 页" id="uvCS95DBRTtOygPlPAw_">
    <mxGraphModel dx="2018" dy="1112" grid="1" gridSize="10" guides="1" tooltips="1" connect="1" arrows="1" fold="1" page="1" pageScale="1" pageWidth="827" pageHeight="1169" math="0" shadow="0">
      <root>
        <mxCell id="0" />
        <mxCell id="1" parent="0" />
        <mxCell id="miPuNvPlgEgBlrkeNLi2-1" value="埋点协议导入SOP" style="swimlane;childLayout=stackLayout;resizeParent=1;resizeParentMax=0;startSize=20;html=1;" parent="1" vertex="1">
          <mxGeometry x="30" y="60" width="1140" height="1250" as="geometry" />
        </mxCell>
        <mxCell id="miPuNvPlgEgBlrkeNLi2-2" value="客户/自需求" style="swimlane;startSize=20;html=1;" parent="miPuNvPlgEgBlrkeNLi2-1" vertex="1">
          <mxGeometry y="20" width="160" height="1230" as="geometry" />
        </mxCell>
        <mxCell id="miPuNvPlgEgBlrkeNLi2-10" value="产生需求" style="rounded=0;whiteSpace=wrap;html=1;" parent="miPuNvPlgEgBlrkeNLi2-2" vertex="1">
          <mxGeometry x="20" y="120" width="120" height="60" as="geometry" />
        </mxCell>
        <mxCell id="miPuNvPlgEgBlrkeNLi2-3" value="平台/车型市场产品经理" style="swimlane;startSize=20;html=1;" parent="miPuNvPlgEgBlrkeNLi2-1" vertex="1">
          <mxGeometry x="160" y="20" width="160" height="1230" as="geometry" />
        </mxCell>
        <mxCell id="miPuNvPlgEgBlrkeNLi2-11" value="创建需求" style="rounded=0;whiteSpace=wrap;html=1;" parent="miPuNvPlgEgBlrkeNLi2-3" vertex="1">
          <mxGeometry x="20" y="120" width="120" height="60" as="geometry" />
        </mxCell>
        <mxCell id="miPuNvPlgEgBlrkeNLi2-5" value="业务模块产品经理" style="swimlane;startSize=20;html=1;" parent="miPuNvPlgEgBlrkeNLi2-1" vertex="1">
          <mxGeometry x="320" y="20" width="170" height="1230" as="geometry" />
        </mxCell>
        <mxCell id="U3OjgcbK7q2tvFuokwTl-5" value="" style="edgeStyle=orthogonalEdgeStyle;rounded=0;orthogonalLoop=1;jettySize=auto;html=1;" edge="1" parent="miPuNvPlgEgBlrkeNLi2-5" source="U3OjgcbK7q2tvFuokwTl-2" target="U3OjgcbK7q2tvFuokwTl-4">
          <mxGeometry relative="1" as="geometry" />
        </mxCell>
        <mxCell id="U3OjgcbK7q2tvFuokwTl-2" value="需求分析" style="rounded=0;whiteSpace=wrap;html=1;" vertex="1" parent="miPuNvPlgEgBlrkeNLi2-5">
          <mxGeometry x="25" y="120" width="120" height="60" as="geometry" />
        </mxCell>
        <mxCell id="U3OjgcbK7q2tvFuokwTl-7" value="" style="edgeStyle=orthogonalEdgeStyle;rounded=0;orthogonalLoop=1;jettySize=auto;html=1;" edge="1" parent="miPuNvPlgEgBlrkeNLi2-5" source="U3OjgcbK7q2tvFuokwTl-4" target="U3OjgcbK7q2tvFuokwTl-6">
          <mxGeometry relative="1" as="geometry" />
        </mxCell>
        <mxCell id="U3OjgcbK7q2tvFuokwTl-12" value="评审" style="edgeLabel;html=1;align=center;verticalAlign=middle;resizable=0;points=[];" vertex="1" connectable="0" parent="U3OjgcbK7q2tvFuokwTl-7">
          <mxGeometry x="0.32" y="-1" relative="1" as="geometry">
            <mxPoint as="offset" />
          </mxGeometry>
        </mxCell>
        <mxCell id="U3OjgcbK7q2tvFuokwTl-4" value="需求内审" style="rounded=0;whiteSpace=wrap;html=1;" vertex="1" parent="miPuNvPlgEgBlrkeNLi2-5">
          <mxGeometry x="25" y="210" width="120" height="60" as="geometry" />
        </mxCell>
        <mxCell id="U3OjgcbK7q2tvFuokwTl-6" value="平台化评审" style="rhombus;whiteSpace=wrap;html=1;" vertex="1" parent="miPuNvPlgEgBlrkeNLi2-5">
          <mxGeometry x="37.5" y="300" width="95" height="90" as="geometry" />
        </mxCell>
        <mxCell id="U3OjgcbK7q2tvFuokwTl-13" style="edgeStyle=orthogonalEdgeStyle;rounded=0;orthogonalLoop=1;jettySize=auto;html=1;exitX=0;exitY=0.5;exitDx=0;exitDy=0;entryX=0.417;entryY=0.017;entryDx=0;entryDy=0;entryPerimeter=0;" edge="1" parent="miPuNvPlgEgBlrkeNLi2-5" source="U3OjgcbK7q2tvFuokwTl-6" target="U3OjgcbK7q2tvFuokwTl-2">
          <mxGeometry relative="1" as="geometry">
            <Array as="points">
              <mxPoint x="18" y="345" />
              <mxPoint x="18" y="100" />
              <mxPoint x="75" y="100" />
            </Array>
          </mxGeometry>
        </mxCell>
        <mxCell id="U3OjgcbK7q2tvFuokwTl-14" value="不通过" style="edgeLabel;html=1;align=center;verticalAlign=middle;resizable=0;points=[];" vertex="1" connectable="0" parent="U3OjgcbK7q2tvFuokwTl-13">
          <mxGeometry x="-0.6467" y="3" relative="1" as="geometry">
            <mxPoint y="1" as="offset" />
          </mxGeometry>
        </mxCell>
        <mxCell id="U3OjgcbK7q2tvFuokwTl-36" style="edgeStyle=orthogonalEdgeStyle;rounded=0;orthogonalLoop=1;jettySize=auto;html=1;" edge="1" parent="miPuNvPlgEgBlrkeNLi2-5" source="U3OjgcbK7q2tvFuokwTl-20" target="U3OjgcbK7q2tvFuokwTl-35">
          <mxGeometry relative="1" as="geometry" />
        </mxCell>
        <mxCell id="U3OjgcbK7q2tvFuokwTl-20" value="需求分解" style="rounded=0;whiteSpace=wrap;html=1;" vertex="1" parent="miPuNvPlgEgBlrkeNLi2-5">
          <mxGeometry x="25" y="520" width="120" height="60" as="geometry" />
        </mxCell>
        <mxCell id="U3OjgcbK7q2tvFuokwTl-40" style="edgeStyle=orthogonalEdgeStyle;rounded=0;orthogonalLoop=1;jettySize=auto;html=1;exitX=0.5;exitY=1;exitDx=0;exitDy=0;entryX=0.5;entryY=0;entryDx=0;entryDy=0;" edge="1" parent="miPuNvPlgEgBlrkeNLi2-5" source="U3OjgcbK7q2tvFuokwTl-35" target="U3OjgcbK7q2tvFuokwTl-39">
          <mxGeometry relative="1" as="geometry" />
        </mxCell>
        <mxCell id="U3OjgcbK7q2tvFuokwTl-43" value="通过" style="edgeLabel;html=1;align=center;verticalAlign=middle;resizable=0;points=[];" vertex="1" connectable="0" parent="U3OjgcbK7q2tvFuokwTl-40">
          <mxGeometry x="-0.2" y="4" relative="1" as="geometry">
            <mxPoint x="-4" as="offset" />
          </mxGeometry>
        </mxCell>
        <mxCell id="U3OjgcbK7q2tvFuokwTl-41" style="edgeStyle=orthogonalEdgeStyle;rounded=0;orthogonalLoop=1;jettySize=auto;html=1;exitX=0;exitY=0.5;exitDx=0;exitDy=0;entryX=0.5;entryY=0;entryDx=0;entryDy=0;" edge="1" parent="miPuNvPlgEgBlrkeNLi2-5" source="U3OjgcbK7q2tvFuokwTl-35" target="U3OjgcbK7q2tvFuokwTl-20">
          <mxGeometry relative="1" as="geometry">
            <Array as="points">
              <mxPoint x="10" y="675" />
              <mxPoint x="10" y="500" />
              <mxPoint x="85" y="500" />
            </Array>
          </mxGeometry>
        </mxCell>
        <mxCell id="U3OjgcbK7q2tvFuokwTl-42" value="不通过" style="edgeLabel;html=1;align=center;verticalAlign=middle;resizable=0;points=[];" vertex="1" connectable="0" parent="U3OjgcbK7q2tvFuokwTl-41">
          <mxGeometry x="-0.3445" y="-2" relative="1" as="geometry">
            <mxPoint y="1" as="offset" />
          </mxGeometry>
        </mxCell>
        <mxCell id="U3OjgcbK7q2tvFuokwTl-35" value="需求评审" style="rhombus;whiteSpace=wrap;html=1;" vertex="1" parent="miPuNvPlgEgBlrkeNLi2-5">
          <mxGeometry x="37.5" y="630" width="95" height="90" as="geometry" />
        </mxCell>
        <mxCell id="U3OjgcbK7q2tvFuokwTl-39" value="需求导入" style="rounded=0;whiteSpace=wrap;html=1;" vertex="1" parent="miPuNvPlgEgBlrkeNLi2-5">
          <mxGeometry x="25" y="760" width="120" height="60" as="geometry" />
        </mxCell>
        <mxCell id="miPuNvPlgEgBlrkeNLi2-6" value="系统工程师" style="swimlane;startSize=20;html=1;" parent="miPuNvPlgEgBlrkeNLi2-1" vertex="1">
          <mxGeometry x="490" y="20" width="170" height="1230" as="geometry" />
        </mxCell>
        <mxCell id="U3OjgcbK7q2tvFuokwTl-8" value="评审/评估" style="rounded=0;whiteSpace=wrap;html=1;" vertex="1" parent="miPuNvPlgEgBlrkeNLi2-6">
          <mxGeometry x="20" y="315" width="120" height="60" as="geometry" />
        </mxCell>
        <mxCell id="U3OjgcbK7q2tvFuokwTl-37" value="评审/评估" style="rounded=0;whiteSpace=wrap;html=1;" vertex="1" parent="miPuNvPlgEgBlrkeNLi2-6">
          <mxGeometry x="20" y="645" width="120" height="60" as="geometry" />
        </mxCell>
        <mxCell id="U3OjgcbK7q2tvFuokwTl-44" value="代码开发" style="rounded=0;whiteSpace=wrap;html=1;" vertex="1" parent="miPuNvPlgEgBlrkeNLi2-6">
          <mxGeometry x="20" y="760" width="120" height="60" as="geometry" />
        </mxCell>
        <mxCell id="miPuNvPlgEgBlrkeNLi2-7" value="首搭车型项目经理" style="swimlane;startSize=20;html=1;" parent="miPuNvPlgEgBlrkeNLi2-1" vertex="1">
          <mxGeometry x="660" y="20" width="160" height="1230" as="geometry" />
        </mxCell>
        <mxCell id="U3OjgcbK7q2tvFuokwTl-18" style="edgeStyle=orthogonalEdgeStyle;rounded=0;orthogonalLoop=1;jettySize=auto;html=1;exitX=0.5;exitY=1;exitDx=0;exitDy=0;" edge="1" parent="miPuNvPlgEgBlrkeNLi2-7" source="U3OjgcbK7q2tvFuokwTl-16">
          <mxGeometry relative="1" as="geometry">
            <mxPoint x="77" y="505" as="targetPoint" />
          </mxGeometry>
        </mxCell>
        <mxCell id="U3OjgcbK7q2tvFuokwTl-16" value="评审/评估" style="rounded=0;whiteSpace=wrap;html=1;" vertex="1" parent="miPuNvPlgEgBlrkeNLi2-7">
          <mxGeometry x="17" y="390" width="120" height="60" as="geometry" />
        </mxCell>
        <mxCell id="U3OjgcbK7q2tvFuokwTl-19" value="项目综合评审" style="rhombus;whiteSpace=wrap;html=1;" vertex="1" parent="miPuNvPlgEgBlrkeNLi2-7">
          <mxGeometry x="29.5" y="505" width="95" height="90" as="geometry" />
        </mxCell>
        <mxCell id="U3OjgcbK7q2tvFuokwTl-21" value="车端测试" style="swimlane;startSize=20;html=1;" vertex="1" parent="miPuNvPlgEgBlrkeNLi2-1">
          <mxGeometry x="820" y="20" width="160" height="1230" as="geometry" />
        </mxCell>
        <mxCell id="U3OjgcbK7q2tvFuokwTl-54" style="edgeStyle=orthogonalEdgeStyle;rounded=0;orthogonalLoop=1;jettySize=auto;html=1;exitX=0.5;exitY=1;exitDx=0;exitDy=0;" edge="1" parent="U3OjgcbK7q2tvFuokwTl-21" source="U3OjgcbK7q2tvFuokwTl-48" target="U3OjgcbK7q2tvFuokwTl-53">
          <mxGeometry relative="1" as="geometry" />
        </mxCell>
        <mxCell id="U3OjgcbK7q2tvFuokwTl-48" value="测试" style="rounded=0;whiteSpace=wrap;html=1;" vertex="1" parent="U3OjgcbK7q2tvFuokwTl-21">
          <mxGeometry x="20" y="760" width="120" height="60" as="geometry" />
        </mxCell>
        <mxCell id="U3OjgcbK7q2tvFuokwTl-53" value="测试是否通过" style="rhombus;whiteSpace=wrap;html=1;" vertex="1" parent="U3OjgcbK7q2tvFuokwTl-21">
          <mxGeometry x="32.5" y="870" width="95" height="90" as="geometry" />
        </mxCell>
        <mxCell id="U3OjgcbK7q2tvFuokwTl-46" value="结束" style="swimlane;startSize=20;html=1;" vertex="1" parent="miPuNvPlgEgBlrkeNLi2-1">
          <mxGeometry x="980" y="20" width="160" height="1230" as="geometry" />
        </mxCell>
        <mxCell id="U3OjgcbK7q2tvFuokwTl-47" value="关闭" style="rounded=0;whiteSpace=wrap;html=1;" vertex="1" parent="U3OjgcbK7q2tvFuokwTl-46">
          <mxGeometry x="20" y="520" width="120" height="60" as="geometry" />
        </mxCell>
        <mxCell id="U3OjgcbK7q2tvFuokwTl-1" style="edgeStyle=orthogonalEdgeStyle;rounded=0;orthogonalLoop=1;jettySize=auto;html=1;exitX=1;exitY=0.5;exitDx=0;exitDy=0;entryX=0;entryY=0.5;entryDx=0;entryDy=0;" edge="1" parent="miPuNvPlgEgBlrkeNLi2-1" source="miPuNvPlgEgBlrkeNLi2-10" target="miPuNvPlgEgBlrkeNLi2-11">
          <mxGeometry relative="1" as="geometry" />
        </mxCell>
        <mxCell id="U3OjgcbK7q2tvFuokwTl-3" style="edgeStyle=orthogonalEdgeStyle;rounded=0;orthogonalLoop=1;jettySize=auto;html=1;exitX=1;exitY=0.5;exitDx=0;exitDy=0;entryX=0;entryY=0.5;entryDx=0;entryDy=0;" edge="1" parent="miPuNvPlgEgBlrkeNLi2-1" source="miPuNvPlgEgBlrkeNLi2-11" target="U3OjgcbK7q2tvFuokwTl-2">
          <mxGeometry relative="1" as="geometry" />
        </mxCell>
        <mxCell id="U3OjgcbK7q2tvFuokwTl-9" style="edgeStyle=orthogonalEdgeStyle;rounded=0;orthogonalLoop=1;jettySize=auto;html=1;exitX=0;exitY=0.5;exitDx=0;exitDy=0;entryX=1;entryY=0.5;entryDx=0;entryDy=0;" edge="1" parent="miPuNvPlgEgBlrkeNLi2-1" source="U3OjgcbK7q2tvFuokwTl-8" target="U3OjgcbK7q2tvFuokwTl-6">
          <mxGeometry relative="1" as="geometry" />
        </mxCell>
        <mxCell id="U3OjgcbK7q2tvFuokwTl-11" style="edgeStyle=orthogonalEdgeStyle;rounded=0;orthogonalLoop=1;jettySize=auto;html=1;exitX=0.5;exitY=1;exitDx=0;exitDy=0;entryX=0.008;entryY=0.65;entryDx=0;entryDy=0;entryPerimeter=0;" edge="1" parent="miPuNvPlgEgBlrkeNLi2-1" source="U3OjgcbK7q2tvFuokwTl-6" target="U3OjgcbK7q2tvFuokwTl-16">
          <mxGeometry relative="1" as="geometry">
            <mxPoint x="405" y="450" as="targetPoint" />
          </mxGeometry>
        </mxCell>
        <mxCell id="U3OjgcbK7q2tvFuokwTl-15" value="通过" style="edgeLabel;html=1;align=center;verticalAlign=middle;resizable=0;points=[];" vertex="1" connectable="0" parent="U3OjgcbK7q2tvFuokwTl-11">
          <mxGeometry x="-0.1606" y="-1" relative="1" as="geometry">
            <mxPoint x="-57" as="offset" />
          </mxGeometry>
        </mxCell>
        <mxCell id="U3OjgcbK7q2tvFuokwTl-26" style="edgeStyle=orthogonalEdgeStyle;rounded=0;orthogonalLoop=1;jettySize=auto;html=1;exitX=1;exitY=0.5;exitDx=0;exitDy=0;entryX=0;entryY=0.5;entryDx=0;entryDy=0;" edge="1" parent="miPuNvPlgEgBlrkeNLi2-1" source="U3OjgcbK7q2tvFuokwTl-19" target="U3OjgcbK7q2tvFuokwTl-47">
          <mxGeometry relative="1" as="geometry">
            <mxPoint x="840" y="570" as="targetPoint" />
          </mxGeometry>
        </mxCell>
        <mxCell id="U3OjgcbK7q2tvFuokwTl-29" value="不通过" style="edgeLabel;html=1;align=center;verticalAlign=middle;resizable=0;points=[];" vertex="1" connectable="0" parent="U3OjgcbK7q2tvFuokwTl-26">
          <mxGeometry x="-0.3333" y="-2" relative="1" as="geometry">
            <mxPoint x="-56" y="-2" as="offset" />
          </mxGeometry>
        </mxCell>
        <mxCell id="U3OjgcbK7q2tvFuokwTl-27" style="edgeStyle=orthogonalEdgeStyle;rounded=0;orthogonalLoop=1;jettySize=auto;html=1;exitX=0;exitY=0.5;exitDx=0;exitDy=0;entryX=1;entryY=0.5;entryDx=0;entryDy=0;" edge="1" parent="miPuNvPlgEgBlrkeNLi2-1" source="U3OjgcbK7q2tvFuokwTl-19" target="U3OjgcbK7q2tvFuokwTl-20">
          <mxGeometry relative="1" as="geometry" />
        </mxCell>
        <mxCell id="U3OjgcbK7q2tvFuokwTl-28" value="通过" style="edgeLabel;html=1;align=center;verticalAlign=middle;resizable=0;points=[];" vertex="1" connectable="0" parent="U3OjgcbK7q2tvFuokwTl-27">
          <mxGeometry x="-0.1938" y="2" relative="1" as="geometry">
            <mxPoint x="71" y="-2" as="offset" />
          </mxGeometry>
        </mxCell>
        <mxCell id="U3OjgcbK7q2tvFuokwTl-38" style="edgeStyle=orthogonalEdgeStyle;rounded=0;orthogonalLoop=1;jettySize=auto;html=1;exitX=0;exitY=0.5;exitDx=0;exitDy=0;entryX=1;entryY=0.5;entryDx=0;entryDy=0;" edge="1" parent="miPuNvPlgEgBlrkeNLi2-1" source="U3OjgcbK7q2tvFuokwTl-37" target="U3OjgcbK7q2tvFuokwTl-35">
          <mxGeometry relative="1" as="geometry" />
        </mxCell>
        <mxCell id="U3OjgcbK7q2tvFuokwTl-45" style="edgeStyle=orthogonalEdgeStyle;rounded=0;orthogonalLoop=1;jettySize=auto;html=1;exitX=1;exitY=0.5;exitDx=0;exitDy=0;entryX=0;entryY=0.5;entryDx=0;entryDy=0;" edge="1" parent="miPuNvPlgEgBlrkeNLi2-1" source="U3OjgcbK7q2tvFuokwTl-39" target="U3OjgcbK7q2tvFuokwTl-44">
          <mxGeometry relative="1" as="geometry" />
        </mxCell>
        <mxCell id="U3OjgcbK7q2tvFuokwTl-49" style="edgeStyle=orthogonalEdgeStyle;rounded=0;orthogonalLoop=1;jettySize=auto;html=1;exitX=1;exitY=0.5;exitDx=0;exitDy=0;entryX=0;entryY=0.5;entryDx=0;entryDy=0;" edge="1" parent="miPuNvPlgEgBlrkeNLi2-1" source="U3OjgcbK7q2tvFuokwTl-44" target="U3OjgcbK7q2tvFuokwTl-48">
          <mxGeometry relative="1" as="geometry" />
        </mxCell>
        <mxCell id="U3OjgcbK7q2tvFuokwTl-55" style="edgeStyle=orthogonalEdgeStyle;rounded=0;orthogonalLoop=1;jettySize=auto;html=1;exitX=0;exitY=0.5;exitDx=0;exitDy=0;entryX=0.5;entryY=1;entryDx=0;entryDy=0;" edge="1" parent="miPuNvPlgEgBlrkeNLi2-1" source="U3OjgcbK7q2tvFuokwTl-53" target="U3OjgcbK7q2tvFuokwTl-44">
          <mxGeometry relative="1" as="geometry" />
        </mxCell>
        <mxCell id="U3OjgcbK7q2tvFuokwTl-56" value="不通过" style="edgeLabel;html=1;align=center;verticalAlign=middle;resizable=0;points=[];" vertex="1" connectable="0" parent="U3OjgcbK7q2tvFuokwTl-55">
          <mxGeometry x="-0.5311" relative="1" as="geometry">
            <mxPoint x="1" as="offset" />
          </mxGeometry>
        </mxCell>
      </root>
    </mxGraphModel>
  </diagram>
</mxfile>
